# xmcd
#
# Track frame offsets:
#	150
#	20025
#	37975
#	54187
#	70200
#	83137
#	93280
#	111500
#	128982
#	143350
#	160755
#	173337
#	190187
#	199112
#	215462
#	231575
#	244037
#	255687
#	284837
#	304825
#
# Disc length: 4365 seconds
#
# Revision: 1
# Processed by: cddbd v1.5PL3 Copyright (c) Steve Scherf et al.
# Submitted via: CDex 1.50Beta5
#
DISCID=1a110b14
DTITLE=Ffvii - FF VII, Reunion Tracks
DYEAR=1900
DGENRE=Soundtrack -> Game
TTITLE0=One Winged Angel (no lyrics)
TTITLE1=Opening - Bombing Mission
TTITLE2=Cosmo Canyon
TTITLE3=Still More Fighting
TTITLE4=Farm Boy
TTITLE5=Rufus's Welcoming Ceremony
TTITLE6=Electric de Chocobo
TTITLE7=Honey Bee Inn
TTITLE8=Cid's Theme
TTITLE9=The Forested Temple
TTITLE10=Fighting
TTITLE11=Ahead On Our Way
TTITLE12=Gold Saucer
TTITLE13=Crazy Motorcycle
TTITLE14=Cait Sith's Theme
TTITLE15=Descendant of Shinobi - Yuffie's Theme
TTITLE16=J-E-N-O-V-A
TTITLE17=FFVII Main Theme (Orchestrated)
TTITLE18=One Winged Angel (Orchestrated)
TTITLE19=Aeris's Theme (Orchestrated)
EXTD=
EXTT0=
EXTT1=
EXTT2=
EXTT3=
EXTT4=
EXTT5=
EXTT6=
EXTT7=
EXTT8=
EXTT9=
EXTT10=
EXTT11=
EXTT12=
EXTT13=
EXTT14=
EXTT15=
EXTT16=
EXTT17=
EXTT18=
EXTT19=
PLAYORDER=
